<svg width="24" height="24" viewBox="0 0 24 24" fill="none" xmlns="http://www.w3.org/2000/svg">
<path fill-rule="evenodd" clip-rule="evenodd" d="M12 10.8C12.9548 10.8 13.8704 10.4207 14.5456 9.74556C15.2207 9.07043 15.6 8.15476 15.6 7.19998C15.6 6.2452 15.2207 5.32952 14.5456 4.65439C13.8704 3.97926 12.9548 3.59998 12 3.59998C11.0452 3.59998 10.1295 3.97926 9.45439 4.65439C8.77926 5.32952 8.39998 6.2452 8.39998 7.19998C8.39998 8.15476 8.77926 9.07043 9.45439 9.74556C10.1295 10.4207 11.0452 10.8 12 10.8V10.8ZM3.59998 21.6C3.59998 20.4969 3.81725 19.4046 4.23939 18.3854C4.66153 17.3663 5.28027 16.4403 6.06028 15.6603C6.84029 14.8803 7.7663 14.2615 8.78543 13.8394C9.80457 13.4172 10.8969 13.2 12 13.2C13.1031 13.2 14.1954 13.4172 15.2145 13.8394C16.2337 14.2615 17.1597 14.8803 17.9397 15.6603C18.7197 16.4403 19.3384 17.3663 19.7606 18.3854C20.1827 19.4046 20.4 20.4969 20.4 21.6H3.59998Z" fill="white"/>
</svg>
